<?xml version="1.0" encoding="UTF-8"?>
<svg id="Livello_1" data-name="Livello 1" xmlns="http://www.w3.org/2000/svg" viewBox="0 0 32 32">
  <defs>
    <style>
      .cls-1 {
        fill: #fff;
      }
    </style>
  </defs>
  <path class="cls-1" d="M1.11,15.87c.06-.08.07-.65.08-.79.05-.86.16-1.7.34-2.54C2.8,6.85,7.07,2.31,12.67.68,14.12.28,15.47.11,16.96,0c.46-.03.94.06,1.4.1.29.02.59.04.87.07,2.41.31,4.71,1.17,6.73,2.52,1.46.97,2.68,2.12,3.77,3.5.12.15.39.51.41.68.07.52.04,1.16.04,1.69v2.74s0,5.72,0,5.72c0,.52.06,2.58-.05,2.95-.1.09-2.49.06-2.85.05-.04-.56-.03-1.16-.03-1.73v-2.42s0-2.52,0-2.52c0-.7-.02-1.22.03-1.92-.39.63-.91,1.23-1.36,1.82-.47.62-.93,1.26-1.4,1.89l-1.89,2.55c-.27.37-1.32,1.9-1.66,1.98-.13.03-.27,0-.39-.07-.31-.2-1.76-2.22-2.11-2.69l-2.03-2.71c-.7-.94-1.38-1.75-2.05-2.72v11.27s0,3.54,0,3.54c0,.51.03,1.42-.02,1.89.52.1,1.05.2,1.57.26,1.38.15,2.68,0,4.04-.27.22-.04,2.02-.6,2.02-.6.03.02.08.1.11.13.24.36.55,1.24.73,1.68.15.35.33.7.45,1.05.02.07.04.14.02.21-.01.05-.03.08-.08.1-.17.09-.39.16-.58.23-1.08.4-2.19.66-3.33.85-.43.07-.89.1-1.32.13-.11,0-.25-.01-.36,0-.03,0-.06.03-.09.05h-.86c-.07-.06-1.49-.15-1.7-.18-6.55-.88-12-5.82-13.47-12.27-.22-.96-.32-2.05-.39-3.04,0-.14.03-.27-.04-.39v-.24ZM11.51,6.68c.83.04,1.78-.01,2.63,0,.32.22,1.55,1.94,1.87,2.38l3.38,4.44c.42.54.82,1.15,1.26,1.67.07.12.13.2.21.31.29-.44.61-.84.92-1.26.86-1.18,1.79-2.31,2.65-3.48.22-.3.45-.59.65-.9.11-.1.57-.74.68-.9.28-.38.57-.76.86-1.13-.41-.48-.98-.99-1.47-1.39-2.06-1.69-4.59-2.69-7.24-2.87-.11,0-.23-.01-.34-.01-3.23-.06-6.24,1.03-8.69,3.14-2.2,1.94-3.64,4.59-4.06,7.5-.04.28-.11.66-.13.94-.24,3.3.83,6.56,3,9.06.79.9,1.67,1.66,2.68,2.31.39.26.76.44,1.16.67-.08-.53-.06-1.95-.06-2.56v-4.57s0-8.1,0-8.1c0-1.73-.03-3.5.05-5.22Z"/>
</svg>
